<?xml version="1.0" standalone="no"?>
<!DOCTYPE svg PUBLIC "-//W3C//DTD SVG 1.1//EN"
"http://www.w3.org/Graphics/SVG/1.1/DTD/svg11.dtd">

<svg width="333" height="347" view_box="0 0 333 347"
xmlns="http://www.w3.org/2000/svg"
xmlns:link="http://www.w3.org/1999/xlink">\n\n<desc>Généré par Mocodo 2.3.7 le Tue, 29 Jun 2021 03:09:05</desc>

<rect id="frame" x="0" y="0" width="333" height="347" fill="#f7f7f7" stroke="none" stroke-width="0"/>

<!-- Association has -->
<line x1="158" y1="304" x2="281" y2="304" stroke="#4393c3" stroke-width="2"/>
<text x="201" y="321.0" fill="#b2182b" font-family="Verdana" font-size="12">0,N</text>
<line x1="281" y1="220" x2="281" y2="304" stroke="#4393c3" stroke-width="2"/>
<text x="286.0" y="271" fill="#b2182b" font-family="Verdana" font-size="12">1,1</text>
<g id="association-has">
	<path d="M 285 279 a 14 14 90 0 1 14 14 V 304 h -36 V 293 a 14 14 90 0 1 14 -14" fill="#92c5de" stroke="#92c5de" stroke-width="0"/>
	<path d="M 299 304.0 v 11 a 14 14 90 0 1 -14 14 H 277 a 14 14 90 0 1 -14 -14 V 304.0 H 36" fill="#d1e5f0" stroke="#d1e5f0" stroke-width="0"/>
	<rect x="263" y="279" width="36" height="50" fill="none" rx="14" stroke="#4393c3" stroke-width="2"/>
	<line x1="263" y1="304" x2="299" y2="304" stroke="#4393c3" stroke-width="1"/>
	<text x="270" y="296.7" fill="#000000" font-family="Verdana" font-size="12">has</text>
</g>

<!-- Association relates to -->
<line x1="281" y1="220" x2="281" y2="85" stroke="#4393c3" stroke-width="2"/>
<text x="286.0" y="178" fill="#b2182b" font-family="Verdana" font-size="12">0,N</text>
<line x1="158" y1="85" x2="281" y2="85" stroke="#4393c3" stroke-width="2"/>
<text x="218" y="102.0" fill="#b2182b" font-family="Verdana" font-size="12">1,1</text>
<g id="association-relates to">
	<path d="M 303 60 a 14 14 90 0 1 14 14 V 85 h -72 V 74 a 14 14 90 0 1 14 -14" fill="#92c5de" stroke="#92c5de" stroke-width="0"/>
	<path d="M 317 85.0 v 11 a 14 14 90 0 1 -14 14 H 259 a 14 14 90 0 1 -14 -14 V 85.0 H 72" fill="#d1e5f0" stroke="#d1e5f0" stroke-width="0"/>
	<rect x="245" y="60" width="72" height="50" fill="none" rx="14" stroke="#4393c3" stroke-width="2"/>
	<line x1="245" y1="85" x2="317" y2="85" stroke="#4393c3" stroke-width="1"/>
	<text x="252" y="77.7" fill="#000000" font-family="Verdana" font-size="12">relates to</text>
</g>

<!-- Association posts -->
<line x1="158" y1="85" x2="47" y2="85" stroke="#4393c3" stroke-width="2"/>
<text x="77" y="102.0" fill="#b2182b" font-family="Verdana" font-size="12">1,1</text>
<line x1="47" y1="220" x2="47" y2="85" stroke="#4393c3" stroke-width="2"/>
<text x="52.0" y="187" fill="#b2182b" font-family="Verdana" font-size="12">0,N</text>
<g id="association-posts">
	<path d="M 57 60 a 14 14 90 0 1 14 14 V 85 h -48 V 74 a 14 14 90 0 1 14 -14" fill="#92c5de" stroke="#92c5de" stroke-width="0"/>
	<path d="M 71 85.0 v 11 a 14 14 90 0 1 -14 14 H 37 a 14 14 90 0 1 -14 -14 V 85.0 H 48" fill="#d1e5f0" stroke="#d1e5f0" stroke-width="0"/>
	<rect x="23" y="60" width="48" height="50" fill="none" rx="14" stroke="#4393c3" stroke-width="2"/>
	<line x1="23" y1="85" x2="71" y2="85" stroke="#4393c3" stroke-width="1"/>
	<text x="30" y="77.7" fill="#000000" font-family="Verdana" font-size="12">posts</text>
</g>

<!-- Entity PLATFORM -->
<g id="entity-PLATFORM">
	<g id="frame-PLATFORM">
		<rect x="120" y="270" width="76" height="25" fill="#f4a582" stroke="#f4a582" stroke-width="0"/>
		<rect x="120" y="295.0" width="76" height="43" fill="#fddbc7" stroke="#fddbc7" stroke-width="0"/>
		<rect x="120" y="270" width="76" height="68" fill="none" stroke="#d6604d" stroke-width="2"/>
		<line x1="120" y1="295" x2="196" y2="295" stroke="#d6604d" stroke-width="1"/>
	</g>
	<text x="125" y="287.7" fill="#000000" font-family="Verdana" font-size="12">PLATFORM</text>
	<text x="125" y="312.8" fill="#000000" font-family="Verdana" font-size="12">name</text>
	<line x1="125" y1="315" x2="160" y2="315" stroke="#000000" stroke-width="1"/>
	<text x="125" y="329.8" fill="#000000" font-family="Verdana" font-size="12">publisher</text>
</g>

<!-- Entity REVIEW -->
<g id="entity-REVIEW">
	<g id="frame-REVIEW">
		<rect x="103" y="9" width="110" height="25" fill="#f4a582" stroke="#f4a582" stroke-width="0"/>
		<rect x="103" y="34.0" width="110" height="127" fill="#fddbc7" stroke="#fddbc7" stroke-width="0"/>
		<rect x="103" y="9" width="110" height="152" fill="none" stroke="#d6604d" stroke-width="2"/>
		<line x1="103" y1="34" x2="213" y2="34" stroke="#d6604d" stroke-width="1"/>
	</g>
	<text x="133" y="26.7" fill="#000000" font-family="Verdana" font-size="12">REVIEW</text>
	<text x="108" y="51.7" fill="#000000" font-family="Verdana" font-size="12">title</text>
	<line x1="108" y1="54" x2="132" y2="54" stroke="#000000" stroke-width="1"/>
	<text x="108" y="68.7" fill="#000000" font-family="Verdana" font-size="12">content</text>
	<text x="108" y="85.8" fill="#000000" font-family="Verdana" font-size="12">author</text>
	<text x="108" y="102.8" fill="#000000" font-family="Verdana" font-size="12">publication date</text>
	<text x="108" y="119.8" fill="#000000" font-family="Verdana" font-size="12">display rating</text>
	<text x="108" y="136.8" fill="#000000" font-family="Verdana" font-size="12">gameplay rating</text>
	<text x="108" y="153.8" fill="#000000" font-family="Verdana" font-size="12">lifetime rating</text>
</g>

<!-- Entity VIDEOGAME -->
<g id="entity-VIDEOGAME">
	<g id="frame-VIDEOGAME">
		<rect x="238" y="186" width="86" height="25" fill="#f4a582" stroke="#f4a582" stroke-width="0"/>
		<rect x="238" y="211.0" width="86" height="43" fill="#fddbc7" stroke="#fddbc7" stroke-width="0"/>
		<rect x="238" y="186" width="86" height="68" fill="none" stroke="#d6604d" stroke-width="2"/>
		<line x1="238" y1="211" x2="324" y2="211" stroke="#d6604d" stroke-width="1"/>
	</g>
	<text x="243" y="203.7" fill="#000000" font-family="Verdana" font-size="12">VIDEOGAME</text>
	<text x="243" y="228.8" fill="#000000" font-family="Verdana" font-size="12">name</text>
	<line x1="243" y1="231" x2="278" y2="231" stroke="#000000" stroke-width="1"/>
	<text x="243" y="245.8" fill="#000000" font-family="Verdana" font-size="12">editor</text>
</g>

<!-- Entity USER -->
<g id="entity-USER">
	<g id="frame-USER">
		<rect x="9" y="195" width="76" height="25" fill="#f4a582" stroke="#f4a582" stroke-width="0"/>
		<rect x="9" y="220.0" width="76" height="25" fill="#fddbc7" stroke="#fddbc7" stroke-width="0"/>
		<rect x="9" y="195" width="76" height="50" fill="none" stroke="#d6604d" stroke-width="2"/>
		<line x1="9" y1="220" x2="85" y2="220" stroke="#d6604d" stroke-width="1"/>
	</g>
	<text x="30" y="212.7" fill="#000000" font-family="Verdana" font-size="12">USER</text>
	<text x="14" y="237.8" fill="#000000" font-family="Verdana" font-size="12">user name</text>
	<line x1="14" y1="240" x2="79" y2="240" stroke="#000000" stroke-width="1"/>
</g>
</svg>